<?xml version="1.0" standalone="no"?>
<!DOCTYPE svg PUBLIC "-//W3C//DTD SVG 20010904//EN"
 "http://www.w3.org/TR/2001/REC-SVG-20010904/DTD/svg10.dtd">
<svg version="1.0" xmlns="http://www.w3.org/2000/svg"
 width="488.000000pt" height="600.000000pt" viewBox="0 0 488.000000 600.000000"
 preserveAspectRatio="xMidYMid meet">

<g transform="translate(0.000000,600.000000) scale(0.100000,-0.100000)"
fill="#000000" stroke="none">
<path d="M3500 5985 c-162 -30 -365 -120 -524 -232 -268 -191 -481 -519 -540
-833 -17 -89 -21 -266 -7 -289 15 -24 208 -9 310 24 394 126 697 434 836 848
52 156 79 366 59 466 -8 36 -16 37 -134 16z"/>
<path d="M3325 4531 c-132 -24 -241 -58 -470 -146 -227 -87 -291 -105 -382
-105 -88 0 -165 22 -398 113 -291 114 -394 139 -589 138 -215 -1 -399 -45
-601 -146 -160 -80 -270 -161 -401 -297 -244 -254 -396 -581 -460 -988 -25
-159 -25 -542 0 -725 61 -451 193 -871 395 -1260 87 -168 155 -277 283 -453
295 -404 490 -579 711 -638 29 -8 98 -14 153 -14 127 0 244 28 415 100 302
127 493 161 726 129 122 -16 186 -35 365 -110 212 -88 308 -111 453 -112 169
-1 296 43 446 154 206 152 532 587 719 960 65 129 190 435 190 465 0 1 -39 23
-87 49 -178 94 -355 245 -471 400 -82 109 -167 290 -203 430 -27 102 -32 144
-36 282 -6 171 3 267 38 401 74 280 259 546 509 731 47 35 87 65 89 67 7 7
-83 118 -154 190 -184 187 -426 314 -710 374 -146 31 -396 36 -530 11z"/>
</g>
</svg>
