<?xml version="1.0" standalone="no"?>
<!DOCTYPE svg PUBLIC "-//W3C//DTD SVG 20010904//EN"
 "http://www.w3.org/TR/2001/REC-SVG-20010904/DTD/svg10.dtd">
<svg version="1.0" xmlns="http://www.w3.org/2000/svg"
 width="768.000000pt" height="768.000000pt" viewBox="0 0 768.000000 768.000000"
 preserveAspectRatio="xMidYMid meet">

<g transform="translate(0.000000,768.000000) scale(0.100000,-0.100000)"
fill="#000000" stroke="none">
<path d="M3625 7350 c-341 -21 -694 -96 -1019 -216 -155 -58 -468 -213 -616
-305 -515 -322 -953 -788 -1239 -1318 -47 -87 -50 -95 -34 -107 10 -7 272
-210 583 -451 l565 -440 36 91 c294 748 964 1267 1738 1347 141 14 411 7 536
-16 355 -62 637 -190 911 -411 l101 -82 501 502 502 501 -87 75 c-477 412
-1014 670 -1618 780 -252 45 -605 66 -860 50z"/>
<path d="M3840 3800 l0 -680 950 0 c523 0 950 -3 950 -7 0 -17 -51 -201 -72
-258 -36 -103 -145 -306 -213 -398 -84 -113 -196 -230 -297 -309 -45 -35 -90
-70 -100 -78 -22 -17 -77 29 612 -505 162 -126 340 -264 395 -307 55 -43 103
-78 107 -78 12 0 225 231 303 330 420 526 665 1171 726 1915 23 279 -3 857
-47 1031 l-6 24 -1654 0 -1654 0 0 -680z"/>
</g>
</svg>
